<mxfile host="app.diagrams.net" modified="2023-05-12T13:09:21.668Z" agent="Mozilla/5.0 (Windows NT 10.0; Win64; x64) AppleWebKit/537.36 (KHTML, like Gecko) Chrome/113.0.0.0 Safari/537.36 Edg/113.0.1774.35" etag="13TYvZzBwjS1MuxWoMoj" version="21.2.9" type="github" pages="2">
  <diagram id="R2lEEEUBdFMjLlhIrx00" name="DER - 1">
    <mxGraphModel dx="794" dy="444" grid="1" gridSize="10" guides="1" tooltips="1" connect="1" arrows="1" fold="1" page="1" pageScale="1" pageWidth="850" pageHeight="1100" math="0" shadow="0" extFonts="Permanent Marker^https://fonts.googleapis.com/css?family=Permanent+Marker">
      <root>
        <mxCell id="0" />
        <mxCell id="1" parent="0" />
        <mxCell id="sSig7BvbFR4rDVxsjcXA-26" value="&lt;pre dir=&quot;ltr&quot; style=&quot;text-align:left&quot; id=&quot;tw-target-text&quot; data-placeholder=&quot;Tradução&quot; class=&quot;tw-data-text tw-text-large tw-ta&quot;&gt;Agenda&lt;/pre&gt;" style="shape=rhombus;perimeter=rhombusPerimeter;whiteSpace=wrap;html=1;align=center;fillColor=#FAE5C7;fontColor=#143642;strokeColor=#0F8B8D;labelBackgroundColor=none;rounded=0;" parent="1" vertex="1">
          <mxGeometry x="80" y="190" width="80" height="60" as="geometry" />
        </mxCell>
        <mxCell id="sSig7BvbFR4rDVxsjcXA-36" value="(0,N)" style="edgeStyle=orthogonalEdgeStyle;rounded=0;orthogonalLoop=1;jettySize=auto;html=1;labelBackgroundColor=none;strokeColor=#A8201A;fontColor=default;" parent="1" source="sSig7BvbFR4rDVxsjcXA-35" target="sSig7BvbFR4rDVxsjcXA-26" edge="1">
          <mxGeometry x="-0.6" y="20" relative="1" as="geometry">
            <mxPoint as="offset" />
          </mxGeometry>
        </mxCell>
        <mxCell id="sSig7BvbFR4rDVxsjcXA-35" value="Recepcionista" style="whiteSpace=wrap;html=1;align=center;fillColor=#FAE5C7;strokeColor=#0F8B8D;labelBackgroundColor=none;fontColor=#143642;rounded=0;" parent="1" vertex="1">
          <mxGeometry x="70" y="90" width="100" height="50" as="geometry" />
        </mxCell>
        <mxCell id="sSig7BvbFR4rDVxsjcXA-44" value="Realiza" style="shape=rhombus;perimeter=rhombusPerimeter;whiteSpace=wrap;html=1;align=center;fillColor=#FAE5C7;fontColor=#143642;strokeColor=#0F8B8D;labelBackgroundColor=none;rounded=0;" parent="1" vertex="1">
          <mxGeometry x="225" y="85" width="90" height="60" as="geometry" />
        </mxCell>
        <mxCell id="sSig7BvbFR4rDVxsjcXA-114" value="(N,1)" style="edgeStyle=orthogonalEdgeStyle;rounded=0;orthogonalLoop=1;jettySize=auto;html=1;exitX=0;exitY=0.5;exitDx=0;exitDy=0;entryX=1;entryY=0.5;entryDx=0;entryDy=0;strokeColor=#A8201A;fontColor=#143642;fillColor=#FAE5C7;" parent="1" source="sSig7BvbFR4rDVxsjcXA-52" target="sSig7BvbFR4rDVxsjcXA-44" edge="1">
          <mxGeometry x="-0.1111" y="-15" relative="1" as="geometry">
            <mxPoint as="offset" />
          </mxGeometry>
        </mxCell>
        <mxCell id="sSig7BvbFR4rDVxsjcXA-52" value="Procedimento" style="shape=ext;margin=3;double=1;whiteSpace=wrap;html=1;align=center;labelBackgroundColor=none;fillColor=#FAE5C7;strokeColor=#0F8B8D;fontColor=#143642;rounded=0;" parent="1" vertex="1">
          <mxGeometry x="360" y="95" width="100" height="40" as="geometry" />
        </mxCell>
        <mxCell id="sSig7BvbFR4rDVxsjcXA-54" value="Banco de Dados - Clínica - Modelo Conceitual" style="text;html=1;strokeColor=none;fillColor=none;align=center;verticalAlign=middle;whiteSpace=wrap;rounded=0;labelBackgroundColor=none;fontColor=#143642;" parent="1" vertex="1">
          <mxGeometry x="10" y="10" width="270" height="30" as="geometry" />
        </mxCell>
        <mxCell id="sSig7BvbFR4rDVxsjcXA-93" value="" style="edgeStyle=orthogonalEdgeStyle;rounded=0;orthogonalLoop=1;jettySize=auto;html=1;strokeColor=#A8201A;fontColor=#143642;fillColor=#FAE5C7;" parent="1" source="sSig7BvbFR4rDVxsjcXA-90" target="sSig7BvbFR4rDVxsjcXA-44" edge="1">
          <mxGeometry relative="1" as="geometry" />
        </mxCell>
        <mxCell id="sSig7BvbFR4rDVxsjcXA-94" value="(N,N)" style="edgeStyle=orthogonalEdgeStyle;rounded=0;orthogonalLoop=1;jettySize=auto;html=1;strokeColor=#A8201A;fontColor=#143642;fillColor=#FAE5C7;" parent="1" source="sSig7BvbFR4rDVxsjcXA-90" target="sSig7BvbFR4rDVxsjcXA-44" edge="1">
          <mxGeometry x="-0.4" y="-20" relative="1" as="geometry">
            <Array as="points">
              <mxPoint x="270" y="170" />
              <mxPoint x="270" y="170" />
            </Array>
            <mxPoint as="offset" />
          </mxGeometry>
        </mxCell>
        <mxCell id="sSig7BvbFR4rDVxsjcXA-113" value="(N,1)" style="edgeStyle=orthogonalEdgeStyle;rounded=0;orthogonalLoop=1;jettySize=auto;html=1;strokeColor=#A8201A;fontColor=#143642;fillColor=#FAE5C7;" parent="1" source="sSig7BvbFR4rDVxsjcXA-90" target="sSig7BvbFR4rDVxsjcXA-26" edge="1">
          <mxGeometry x="-0.2308" y="-10" relative="1" as="geometry">
            <Array as="points">
              <mxPoint x="200" y="220" />
              <mxPoint x="200" y="220" />
            </Array>
            <mxPoint as="offset" />
          </mxGeometry>
        </mxCell>
        <mxCell id="sSig7BvbFR4rDVxsjcXA-90" value="&lt;font&gt;Consulta&lt;/font&gt;" style="shape=associativeEntity;whiteSpace=wrap;html=1;align=center;strokeColor=#0F8B8D;fontColor=#143642;fillColor=#FAE5C7;" parent="1" vertex="1">
          <mxGeometry x="225" y="195" width="90" height="50" as="geometry" />
        </mxCell>
        <mxCell id="sSig7BvbFR4rDVxsjcXA-108" value="(1,N)" style="edgeStyle=orthogonalEdgeStyle;rounded=0;orthogonalLoop=1;jettySize=auto;html=1;strokeColor=#A8201A;fontColor=#143642;fillColor=#FAE5C7;" parent="1" source="sSig7BvbFR4rDVxsjcXA-105" target="sSig7BvbFR4rDVxsjcXA-90" edge="1">
          <mxGeometry x="0.3077" y="-20" relative="1" as="geometry">
            <mxPoint y="1" as="offset" />
          </mxGeometry>
        </mxCell>
        <mxCell id="sSig7BvbFR4rDVxsjcXA-105" value="" style="swimlane;startSize=0;strokeColor=#0F8B8D;fontColor=#143642;fillColor=#FAE5C7;" parent="1" vertex="1">
          <mxGeometry x="40" y="310" width="460" height="110" as="geometry" />
        </mxCell>
        <mxCell id="sSig7BvbFR4rDVxsjcXA-22" value="Profissional da Saúde" style="whiteSpace=wrap;html=1;align=center;fillColor=#FAE5C7;strokeColor=#0F8B8D;labelBackgroundColor=none;fontColor=#143642;rounded=0;" parent="sSig7BvbFR4rDVxsjcXA-105" vertex="1">
          <mxGeometry x="350" y="25" width="100" height="60" as="geometry" />
        </mxCell>
        <mxCell id="sSig7BvbFR4rDVxsjcXA-116" value="(1,1)" style="edgeStyle=orthogonalEdgeStyle;rounded=0;orthogonalLoop=1;jettySize=auto;html=1;strokeColor=#A8201A;fontColor=#143642;fillColor=#FAE5C7;" parent="sSig7BvbFR4rDVxsjcXA-105" source="sSig7BvbFR4rDVxsjcXA-16" target="sSig7BvbFR4rDVxsjcXA-103" edge="1">
          <mxGeometry relative="1" as="geometry" />
        </mxCell>
        <mxCell id="sSig7BvbFR4rDVxsjcXA-16" value="Cliente" style="html=1;dashed=0;whiteSpace=wrap;fillColor=#FAE5C7;strokeColor=#0F8B8D;labelBackgroundColor=none;fontColor=#143642;rounded=0;" parent="sSig7BvbFR4rDVxsjcXA-105" vertex="1">
          <mxGeometry x="10" y="30" width="100" height="50" as="geometry" />
        </mxCell>
        <mxCell id="sSig7BvbFR4rDVxsjcXA-103" value="Atende" style="shape=rhombus;perimeter=rhombusPerimeter;whiteSpace=wrap;html=1;align=center;strokeColor=#0F8B8D;fontColor=#143642;fillColor=#FAE5C7;" parent="sSig7BvbFR4rDVxsjcXA-105" vertex="1">
          <mxGeometry x="170" y="25" width="120" height="60" as="geometry" />
        </mxCell>
        <mxCell id="sSig7BvbFR4rDVxsjcXA-106" value="(0,N)" style="edgeStyle=orthogonalEdgeStyle;rounded=0;orthogonalLoop=1;jettySize=auto;html=1;strokeColor=#A8201A;fontColor=#143642;fillColor=#FAE5C7;" parent="sSig7BvbFR4rDVxsjcXA-105" source="sSig7BvbFR4rDVxsjcXA-22" target="sSig7BvbFR4rDVxsjcXA-103" edge="1">
          <mxGeometry x="-0.2" y="-15" relative="1" as="geometry">
            <mxPoint as="offset" />
          </mxGeometry>
        </mxCell>
        <mxCell id="sSig7BvbFR4rDVxsjcXA-115" value="(1,N)" style="edgeStyle=orthogonalEdgeStyle;rounded=0;orthogonalLoop=1;jettySize=auto;html=1;strokeColor=#A8201A;fontColor=#143642;fillColor=#FAE5C7;" parent="1" source="sSig7BvbFR4rDVxsjcXA-16" target="sSig7BvbFR4rDVxsjcXA-26" edge="1">
          <mxGeometry x="-0.1818" y="15" relative="1" as="geometry">
            <mxPoint as="offset" />
          </mxGeometry>
        </mxCell>
      </root>
    </mxGraphModel>
  </diagram>
  <diagram id="4rLCnzNPUbhXUSX-HpMN" name="Diagrama Caso de Uso">
    <mxGraphModel dx="1030" dy="444" grid="1" gridSize="10" guides="1" tooltips="1" connect="1" arrows="1" fold="1" page="1" pageScale="1" pageWidth="827" pageHeight="1169" math="0" shadow="0">
      <root>
        <mxCell id="0" />
        <mxCell id="1" parent="0" />
        <mxCell id="GmuAigUfVWQjmmi0ox5z-35" style="edgeStyle=orthogonalEdgeStyle;rounded=0;orthogonalLoop=1;jettySize=auto;html=1;exitX=0.5;exitY=0;exitDx=0;exitDy=0;exitPerimeter=0;entryX=0;entryY=0.5;entryDx=0;entryDy=0;" edge="1" parent="1" source="IWvzth9fgmmH5nFbawuh-4" target="IWvzth9fgmmH5nFbawuh-34">
          <mxGeometry relative="1" as="geometry" />
        </mxCell>
        <mxCell id="GmuAigUfVWQjmmi0ox5z-36" style="edgeStyle=orthogonalEdgeStyle;rounded=0;orthogonalLoop=1;jettySize=auto;html=1;exitX=1;exitY=0.3333333333333333;exitDx=0;exitDy=0;exitPerimeter=0;entryX=0;entryY=0.5;entryDx=0;entryDy=0;" edge="1" parent="1" source="IWvzth9fgmmH5nFbawuh-4" target="GmuAigUfVWQjmmi0ox5z-1">
          <mxGeometry relative="1" as="geometry">
            <Array as="points">
              <mxPoint x="100" y="190" />
            </Array>
          </mxGeometry>
        </mxCell>
        <mxCell id="GmuAigUfVWQjmmi0ox5z-39" style="edgeStyle=orthogonalEdgeStyle;rounded=0;orthogonalLoop=1;jettySize=auto;html=1;exitX=1;exitY=0.3333333333333333;exitDx=0;exitDy=0;exitPerimeter=0;" edge="1" parent="1" source="IWvzth9fgmmH5nFbawuh-4" target="IWvzth9fgmmH5nFbawuh-17">
          <mxGeometry relative="1" as="geometry" />
        </mxCell>
        <mxCell id="GmuAigUfVWQjmmi0ox5z-43" style="edgeStyle=orthogonalEdgeStyle;rounded=0;orthogonalLoop=1;jettySize=auto;html=1;exitX=1;exitY=1;exitDx=0;exitDy=0;exitPerimeter=0;" edge="1" parent="1" source="IWvzth9fgmmH5nFbawuh-4" target="IWvzth9fgmmH5nFbawuh-39">
          <mxGeometry relative="1" as="geometry" />
        </mxCell>
        <mxCell id="GmuAigUfVWQjmmi0ox5z-44" style="edgeStyle=orthogonalEdgeStyle;rounded=0;orthogonalLoop=1;jettySize=auto;html=1;exitX=0.5;exitY=0.5;exitDx=0;exitDy=0;exitPerimeter=0;entryX=0;entryY=0.5;entryDx=0;entryDy=0;" edge="1" parent="1" source="IWvzth9fgmmH5nFbawuh-4" target="IWvzth9fgmmH5nFbawuh-37">
          <mxGeometry relative="1" as="geometry" />
        </mxCell>
        <mxCell id="IWvzth9fgmmH5nFbawuh-4" value="Ciente" style="shape=umlActor;verticalLabelPosition=bottom;verticalAlign=top;html=1;outlineConnect=0;labelBackgroundColor=none;" vertex="1" parent="1">
          <mxGeometry x="70" y="260" width="30" height="60" as="geometry" />
        </mxCell>
        <mxCell id="GmuAigUfVWQjmmi0ox5z-47" style="edgeStyle=orthogonalEdgeStyle;rounded=0;orthogonalLoop=1;jettySize=auto;html=1;exitX=0.5;exitY=0;exitDx=0;exitDy=0;exitPerimeter=0;entryX=0.5;entryY=0;entryDx=0;entryDy=0;" edge="1" parent="1" source="IWvzth9fgmmH5nFbawuh-6" target="IWvzth9fgmmH5nFbawuh-34">
          <mxGeometry relative="1" as="geometry">
            <Array as="points">
              <mxPoint x="625" y="80" />
              <mxPoint x="245" y="80" />
            </Array>
          </mxGeometry>
        </mxCell>
        <mxCell id="GmuAigUfVWQjmmi0ox5z-48" style="edgeStyle=orthogonalEdgeStyle;rounded=0;orthogonalLoop=1;jettySize=auto;html=1;exitX=0.25;exitY=0.1;exitDx=0;exitDy=0;exitPerimeter=0;entryX=1;entryY=0;entryDx=0;entryDy=0;" edge="1" parent="1" source="IWvzth9fgmmH5nFbawuh-6" target="GmuAigUfVWQjmmi0ox5z-1">
          <mxGeometry relative="1" as="geometry" />
        </mxCell>
        <mxCell id="GmuAigUfVWQjmmi0ox5z-49" style="edgeStyle=orthogonalEdgeStyle;rounded=0;orthogonalLoop=1;jettySize=auto;html=1;exitX=0;exitY=0.3333333333333333;exitDx=0;exitDy=0;exitPerimeter=0;" edge="1" parent="1" source="IWvzth9fgmmH5nFbawuh-6" target="IWvzth9fgmmH5nFbawuh-17">
          <mxGeometry relative="1" as="geometry" />
        </mxCell>
        <mxCell id="GmuAigUfVWQjmmi0ox5z-50" style="edgeStyle=orthogonalEdgeStyle;rounded=0;orthogonalLoop=1;jettySize=auto;html=1;exitX=0.5;exitY=0.5;exitDx=0;exitDy=0;exitPerimeter=0;" edge="1" parent="1" source="IWvzth9fgmmH5nFbawuh-6" target="IWvzth9fgmmH5nFbawuh-31">
          <mxGeometry relative="1" as="geometry" />
        </mxCell>
        <mxCell id="GmuAigUfVWQjmmi0ox5z-58" style="edgeStyle=orthogonalEdgeStyle;rounded=0;orthogonalLoop=1;jettySize=auto;html=1;exitX=0;exitY=1;exitDx=0;exitDy=0;exitPerimeter=0;entryX=1;entryY=0.5;entryDx=0;entryDy=0;" edge="1" parent="1" source="IWvzth9fgmmH5nFbawuh-6" target="IWvzth9fgmmH5nFbawuh-24">
          <mxGeometry relative="1" as="geometry">
            <Array as="points">
              <mxPoint x="570" y="200" />
              <mxPoint x="570" y="343" />
            </Array>
          </mxGeometry>
        </mxCell>
        <mxCell id="GmuAigUfVWQjmmi0ox5z-59" style="edgeStyle=orthogonalEdgeStyle;rounded=0;orthogonalLoop=1;jettySize=auto;html=1;exitX=1;exitY=1;exitDx=0;exitDy=0;exitPerimeter=0;entryX=1;entryY=0.5;entryDx=0;entryDy=0;" edge="1" parent="1" source="IWvzth9fgmmH5nFbawuh-6" target="IWvzth9fgmmH5nFbawuh-21">
          <mxGeometry relative="1" as="geometry">
            <Array as="points">
              <mxPoint x="680" y="200" />
              <mxPoint x="680" y="440" />
            </Array>
          </mxGeometry>
        </mxCell>
        <mxCell id="IWvzth9fgmmH5nFbawuh-6" value="Atendente" style="shape=umlActor;verticalLabelPosition=bottom;verticalAlign=top;html=1;outlineConnect=0;labelBackgroundColor=none;" vertex="1" parent="1">
          <mxGeometry x="610" y="140" width="30" height="60" as="geometry" />
        </mxCell>
        <mxCell id="IWvzth9fgmmH5nFbawuh-8" value="Diagrama Caso de Uso" style="text;html=1;strokeColor=none;fillColor=none;align=center;verticalAlign=middle;whiteSpace=wrap;rounded=0;labelBackgroundColor=none;" vertex="1" parent="1">
          <mxGeometry x="4" y="10" width="140" height="30" as="geometry" />
        </mxCell>
        <mxCell id="GmuAigUfVWQjmmi0ox5z-51" style="edgeStyle=orthogonalEdgeStyle;rounded=0;orthogonalLoop=1;jettySize=auto;html=1;exitX=0.5;exitY=0;exitDx=0;exitDy=0;exitPerimeter=0;entryX=1;entryY=0.5;entryDx=0;entryDy=0;" edge="1" parent="1" source="IWvzth9fgmmH5nFbawuh-5" target="GmuAigUfVWQjmmi0ox5z-1">
          <mxGeometry relative="1" as="geometry">
            <Array as="points">
              <mxPoint x="570" y="260" />
              <mxPoint x="570" y="190" />
            </Array>
          </mxGeometry>
        </mxCell>
        <mxCell id="GmuAigUfVWQjmmi0ox5z-55" style="edgeStyle=orthogonalEdgeStyle;rounded=0;orthogonalLoop=1;jettySize=auto;html=1;exitX=0.25;exitY=0.1;exitDx=0;exitDy=0;exitPerimeter=0;entryX=1;entryY=0.5;entryDx=0;entryDy=0;" edge="1" parent="1" source="IWvzth9fgmmH5nFbawuh-5" target="IWvzth9fgmmH5nFbawuh-31">
          <mxGeometry relative="1" as="geometry" />
        </mxCell>
        <mxCell id="GmuAigUfVWQjmmi0ox5z-56" style="edgeStyle=orthogonalEdgeStyle;rounded=0;orthogonalLoop=1;jettySize=auto;html=1;exitX=0;exitY=0.3333333333333333;exitDx=0;exitDy=0;exitPerimeter=0;" edge="1" parent="1" source="IWvzth9fgmmH5nFbawuh-5" target="IWvzth9fgmmH5nFbawuh-39">
          <mxGeometry relative="1" as="geometry">
            <Array as="points">
              <mxPoint x="610" y="290" />
              <mxPoint x="250" y="290" />
            </Array>
          </mxGeometry>
        </mxCell>
        <mxCell id="GmuAigUfVWQjmmi0ox5z-61" style="edgeStyle=orthogonalEdgeStyle;rounded=0;orthogonalLoop=1;jettySize=auto;html=1;exitX=0;exitY=1;exitDx=0;exitDy=0;exitPerimeter=0;entryX=1;entryY=0;entryDx=0;entryDy=0;" edge="1" parent="1" source="IWvzth9fgmmH5nFbawuh-5" target="IWvzth9fgmmH5nFbawuh-45">
          <mxGeometry relative="1" as="geometry">
            <Array as="points">
              <mxPoint x="610" y="390" />
              <mxPoint x="350" y="390" />
              <mxPoint x="350" y="499" />
            </Array>
          </mxGeometry>
        </mxCell>
        <mxCell id="GmuAigUfVWQjmmi0ox5z-62" style="edgeStyle=orthogonalEdgeStyle;rounded=0;orthogonalLoop=1;jettySize=auto;html=1;exitX=0.5;exitY=0.5;exitDx=0;exitDy=0;exitPerimeter=0;entryX=1;entryY=0.5;entryDx=0;entryDy=0;" edge="1" parent="1" source="IWvzth9fgmmH5nFbawuh-5" target="IWvzth9fgmmH5nFbawuh-48">
          <mxGeometry relative="1" as="geometry" />
        </mxCell>
        <mxCell id="IWvzth9fgmmH5nFbawuh-5" value="Profissional&lt;br&gt;Da&lt;br&gt;Saúde" style="shape=umlActor;verticalLabelPosition=bottom;verticalAlign=top;html=1;outlineConnect=0;labelBackgroundColor=none;" vertex="1" parent="1">
          <mxGeometry x="610" y="300" width="30" height="60" as="geometry" />
        </mxCell>
        <mxCell id="GmuAigUfVWQjmmi0ox5z-30" value="Sistema" style="swimlane;whiteSpace=wrap;html=1;" vertex="1" parent="1">
          <mxGeometry x="170" y="50" width="370" height="540" as="geometry" />
        </mxCell>
        <mxCell id="IWvzth9fgmmH5nFbawuh-34" value="Cadastra" style="ellipse;whiteSpace=wrap;html=1;labelBackgroundColor=none;" vertex="1" parent="GmuAigUfVWQjmmi0ox5z-30">
          <mxGeometry x="20" y="40" width="110" height="50" as="geometry" />
        </mxCell>
        <mxCell id="GmuAigUfVWQjmmi0ox5z-5" value="Valida&lt;br&gt;Cadastro" style="ellipse;whiteSpace=wrap;html=1;labelBackgroundColor=none;" vertex="1" parent="GmuAigUfVWQjmmi0ox5z-30">
          <mxGeometry x="244" y="40" width="110" height="50" as="geometry" />
        </mxCell>
        <mxCell id="GmuAigUfVWQjmmi0ox5z-7" value="&amp;lt;&amp;lt;include&amp;gt;&amp;gt;" style="endArrow=open;endSize=12;dashed=1;html=1;rounded=0;exitX=1;exitY=0.5;exitDx=0;exitDy=0;" edge="1" parent="GmuAigUfVWQjmmi0ox5z-30" source="IWvzth9fgmmH5nFbawuh-34" target="GmuAigUfVWQjmmi0ox5z-5">
          <mxGeometry x="-0.1228" y="15" width="160" relative="1" as="geometry">
            <mxPoint x="192" y="-105.5" as="sourcePoint" />
            <mxPoint x="282" y="-105.5" as="targetPoint" />
            <Array as="points" />
            <mxPoint as="offset" />
          </mxGeometry>
        </mxCell>
        <mxCell id="GmuAigUfVWQjmmi0ox5z-1" value="Faz Login" style="ellipse;whiteSpace=wrap;html=1;" vertex="1" parent="GmuAigUfVWQjmmi0ox5z-30">
          <mxGeometry x="130" y="110" width="110" height="60" as="geometry" />
        </mxCell>
        <mxCell id="GmuAigUfVWQjmmi0ox5z-31" value="&amp;lt;&amp;lt;include&amp;gt;&amp;gt;" style="endArrow=open;endSize=12;dashed=1;html=1;rounded=0;exitX=0.5;exitY=0;exitDx=0;exitDy=0;entryX=0.345;entryY=0.96;entryDx=0;entryDy=0;entryPerimeter=0;" edge="1" parent="GmuAigUfVWQjmmi0ox5z-30" source="GmuAigUfVWQjmmi0ox5z-1" target="GmuAigUfVWQjmmi0ox5z-5">
          <mxGeometry x="-0.1228" y="15" width="160" relative="1" as="geometry">
            <mxPoint x="140" y="65" as="sourcePoint" />
            <mxPoint x="254" y="65" as="targetPoint" />
            <Array as="points" />
            <mxPoint as="offset" />
          </mxGeometry>
        </mxCell>
        <mxCell id="IWvzth9fgmmH5nFbawuh-17" value="Agenda" style="ellipse;whiteSpace=wrap;html=1;labelBackgroundColor=none;" vertex="1" parent="GmuAigUfVWQjmmi0ox5z-30">
          <mxGeometry x="20" y="170" width="100" height="60" as="geometry" />
        </mxCell>
        <mxCell id="IWvzth9fgmmH5nFbawuh-31" value="Consulta Agenda" style="ellipse;whiteSpace=wrap;html=1;labelBackgroundColor=none;" vertex="1" parent="GmuAigUfVWQjmmi0ox5z-30">
          <mxGeometry x="244" y="170" width="100" height="60" as="geometry" />
        </mxCell>
        <mxCell id="IWvzth9fgmmH5nFbawuh-28" value="&amp;lt;&amp;lt;include&amp;gt;&amp;gt;" style="endArrow=open;endSize=12;dashed=1;html=1;rounded=0;exitX=1;exitY=0.5;exitDx=0;exitDy=0;labelBackgroundColor=none;fontColor=default;" edge="1" parent="GmuAigUfVWQjmmi0ox5z-30" source="IWvzth9fgmmH5nFbawuh-17" target="IWvzth9fgmmH5nFbawuh-31">
          <mxGeometry x="-0.0323" y="20" width="160" relative="1" as="geometry">
            <mxPoint x="187" y="79.5" as="sourcePoint" />
            <mxPoint x="237" y="80" as="targetPoint" />
            <Array as="points" />
            <mxPoint as="offset" />
          </mxGeometry>
        </mxCell>
        <mxCell id="IWvzth9fgmmH5nFbawuh-39" value="Solicita Realendamento" style="ellipse;whiteSpace=wrap;html=1;labelBackgroundColor=none;" vertex="1" parent="GmuAigUfVWQjmmi0ox5z-30">
          <mxGeometry x="20" y="260" width="120" height="60" as="geometry" />
        </mxCell>
        <mxCell id="IWvzth9fgmmH5nFbawuh-37" value="Solicita Cancelamento" style="ellipse;whiteSpace=wrap;html=1;labelBackgroundColor=none;" vertex="1" parent="GmuAigUfVWQjmmi0ox5z-30">
          <mxGeometry x="25" y="350" width="110" height="50" as="geometry" />
        </mxCell>
        <mxCell id="IWvzth9fgmmH5nFbawuh-24" value="Remarca Atendimento" style="ellipse;whiteSpace=wrap;html=1;labelBackgroundColor=none;" vertex="1" parent="GmuAigUfVWQjmmi0ox5z-30">
          <mxGeometry x="220" y="260" width="110" height="65" as="geometry" />
        </mxCell>
        <mxCell id="IWvzth9fgmmH5nFbawuh-21" value="Cancela Agendamento" style="ellipse;whiteSpace=wrap;html=1;labelBackgroundColor=none;" vertex="1" parent="GmuAigUfVWQjmmi0ox5z-30">
          <mxGeometry x="220" y="360" width="110" height="60" as="geometry" />
        </mxCell>
        <mxCell id="IWvzth9fgmmH5nFbawuh-45" value="Realiza consulta" style="ellipse;whiteSpace=wrap;html=1;labelBackgroundColor=none;" vertex="1" parent="GmuAigUfVWQjmmi0ox5z-30">
          <mxGeometry x="17" y="440" width="116" height="60" as="geometry" />
        </mxCell>
        <mxCell id="IWvzth9fgmmH5nFbawuh-48" value="Realiza Procedimentos" style="ellipse;whiteSpace=wrap;html=1;labelBackgroundColor=none;" vertex="1" parent="GmuAigUfVWQjmmi0ox5z-30">
          <mxGeometry x="215" y="440" width="120" height="60" as="geometry" />
        </mxCell>
        <mxCell id="GmuAigUfVWQjmmi0ox5z-64" value="" style="endArrow=none;html=1;rounded=0;entryX=0;entryY=1;entryDx=0;entryDy=0;entryPerimeter=0;exitX=0;exitY=0.5;exitDx=0;exitDy=0;" edge="1" parent="1" source="IWvzth9fgmmH5nFbawuh-45" target="IWvzth9fgmmH5nFbawuh-4">
          <mxGeometry width="50" height="50" relative="1" as="geometry">
            <mxPoint x="50" y="470" as="sourcePoint" />
            <mxPoint x="100" y="420" as="targetPoint" />
            <Array as="points">
              <mxPoint x="70" y="520" />
            </Array>
          </mxGeometry>
        </mxCell>
        <mxCell id="GmuAigUfVWQjmmi0ox5z-65" value="" style="endArrow=none;html=1;rounded=0;exitX=0;exitY=0;exitDx=0;exitDy=0;entryX=0.5;entryY=0.5;entryDx=0;entryDy=0;entryPerimeter=0;" edge="1" parent="1" source="IWvzth9fgmmH5nFbawuh-48" target="IWvzth9fgmmH5nFbawuh-4">
          <mxGeometry width="50" height="50" relative="1" as="geometry">
            <mxPoint x="420" y="410" as="sourcePoint" />
            <mxPoint x="470" y="360" as="targetPoint" />
            <Array as="points">
              <mxPoint x="330" y="300" />
            </Array>
          </mxGeometry>
        </mxCell>
      </root>
    </mxGraphModel>
  </diagram>
</mxfile>
